<svg xmlns="http://www.w3.org/2000/svg" viewBox="0 0 420 620">
  <rect width="420" height="620" fill="#fff"/>
  <g transform="translate(70 34)">
    <path d="M138 18c42 0 74 30 78 76 5 52-16 90-78 90s-83-38-78-90c4-46 36-76 78-76Z" fill="#2f261d"/>
    <path d="M88 64c-18 8-31 31-27 61 3 21 13 34 27 43M188 64c18 8 31 31 27 61-3 21-13 34-27 43" fill="none" stroke="#2f261d" stroke-width="18" stroke-linecap="round"/>
    <path d="M102 12l34 28 34-28 6 54H96l6-54Z" fill="#d8c1a6"/>
    <circle cx="138" cy="112" r="62" fill="#b98364"/>
    <path d="M88 115c0 54 22 86 50 86s50-32 50-86" fill="#b98364"/>
    <circle cx="113" cy="103" r="12" fill="#2b211a"/>
    <circle cx="163" cy="103" r="12" fill="#2b211a"/>
    <circle cx="117" cy="99" r="4" fill="#fff"/>
    <circle cx="167" cy="99" r="4" fill="#fff"/>
    <path d="M125 139c9 8 18 8 27 0" fill="none" stroke="#6d3c32" stroke-width="5" stroke-linecap="round"/>
    <circle cx="95" cy="132" r="9" fill="#d99a8d" opacity=".65"/>
    <circle cx="181" cy="132" r="9" fill="#d99a8d" opacity=".65"/>
    <path d="M86 213c-36 8-52 34-42 70 4 15 19 22 34 16l15-5M190 213c36 8 52 34 42 70-4 15-19 22-34 16l-15-5" fill="#fff8ee" stroke="#2f261d" stroke-width="5"/>
    <path d="M88 198h100l30 256H58l30-256Z" fill="#fff8ee" stroke="#2f261d" stroke-width="5"/>
    <path d="M84 276h108" stroke="#b98364" stroke-width="11" stroke-linecap="round"/>
    <path d="M68 456l-12 96M208 456l12 96" stroke="#b98364" stroke-width="30" stroke-linecap="round"/>
    <path d="M45 560h72c2 20-11 30-35 30H44c-12 0-18-9-13-18 3-6 8-10 14-12ZM159 560h72c6 2 11 6 14 12 5 9-1 18-13 18h-38c-24 0-37-10-35-30Z" fill="#4a3628" stroke="#2f261d" stroke-width="5"/>
    <path d="M64 536h44M168 536h44" stroke="#fff" stroke-width="12" stroke-linecap="round"/>
    <g fill="#d7b78b">
      <circle cx="111" cy="236" r="5"/><circle cx="150" cy="236" r="5"/><circle cx="173" cy="268" r="5"/>
      <circle cx="98" cy="310" r="5"/><circle cx="141" cy="326" r="5"/><circle cx="181" cy="356" r="5"/>
      <circle cx="116" cy="380" r="5"/><circle cx="158" cy="412" r="5"/>
    </g>
    <g stroke="#d7b78b" stroke-width="4" stroke-linecap="round">
      <path d="M111 226v20M101 236h20"/><path d="M150 226v20M140 236h20"/><path d="M173 258v20M163 268h20"/>
      <path d="M98 300v20M88 310h20"/><path d="M141 316v20M131 326h20"/><path d="M181 346v20M171 356h20"/>
      <path d="M116 370v20M106 380h20"/><path d="M158 402v20M148 412h20"/>
    </g>
  </g>
</svg>
