<svg preserveAspectRatio="none" width="100%" height="100%" overflow="visible" style="display: block;" viewBox="0 0 44 44" fill="none" xmlns="http://www.w3.org/2000/svg">
<path id="Vector" d="M17.5615 1.15659e-06C14.8129 0.00146995 12.103 0.647603 9.64954 1.88647C7.19611 3.12533 5.06759 4.92237 3.43506 7.13315C1.80253 9.34394 0.711536 11.9068 0.249755 14.6157C-0.212026 17.3247 -0.0317111 20.1042 0.776208 22.7308C1.58413 25.3574 2.99712 27.7579 4.90161 29.7393C6.8061 31.7207 9.14897 33.2278 11.7419 34.1395C14.3349 35.0511 17.1056 35.3418 19.8313 34.9883C22.5571 34.6348 25.1619 33.6469 27.4363 32.1039L38.2951 42.9516C38.5968 43.2753 38.9605 43.5348 39.3646 43.7149C39.7687 43.8949 40.205 43.9917 40.6473 43.9995C41.0897 44.0073 41.5291 43.9259 41.9393 43.7603C42.3496 43.5946 42.7222 43.348 43.035 43.0353C43.3479 42.7225 43.5945 42.3499 43.7602 41.9398C43.9259 41.5296 44.0073 41.0903 43.9995 40.6481C43.9917 40.2058 43.8949 39.7696 43.7148 39.3656C43.5347 38.9615 43.2751 38.5979 42.9514 38.2964L32.1014 27.4399C33.8964 24.7986 34.9374 21.718 35.1124 18.5295C35.2873 15.341 34.5897 12.1651 33.0945 9.34335C31.5993 6.52156 29.363 4.16062 26.6262 2.51437C23.8894 0.868121 20.7555 -0.00115742 17.5615 1.15659e-06ZM6.57969 17.5671C6.57969 14.6552 7.7367 11.8625 9.79619 9.80349C11.8557 7.74444 14.6489 6.58768 17.5615 6.58768C20.4741 6.58768 23.2673 7.74444 25.3268 9.80349C27.3863 11.8625 28.5433 14.6552 28.5433 17.5671C28.5433 20.4791 27.3863 23.2717 25.3268 25.3308C23.2673 27.3898 20.4741 28.5466 17.5615 28.5466C14.6489 28.5466 11.8557 27.3898 9.79619 25.3308C7.7367 23.2717 6.57969 20.4791 6.57969 17.5671Z" fill="var(--fill-0, #306C8B)"/>
</svg>
